<svg width="235" height="196" viewBox="0 0 235 196" fill="none" xmlns="http://www.w3.org/2000/svg">
<path d="M43.9744 125.727V149H39.054V125.727H43.9744ZM55.7955 155.909C54.2273 155.909 52.8826 155.693 51.7614 155.261C50.6477 154.837 49.7614 154.258 49.1023 153.523C48.4432 152.788 48.0152 151.962 47.8182 151.045L52.2955 150.443C52.4318 150.792 52.6477 151.117 52.9432 151.42C53.2386 151.723 53.6288 151.966 54.1136 152.148C54.6061 152.337 55.2045 152.432 55.9091 152.432C56.9621 152.432 57.8295 152.174 58.5114 151.659C59.2008 151.152 59.5455 150.299 59.5455 149.102V145.909H59.3409C59.1288 146.394 58.8106 146.852 58.3864 147.284C57.9621 147.716 57.4167 148.068 56.75 148.341C56.0833 148.614 55.2879 148.75 54.3636 148.75C53.053 148.75 51.8598 148.447 50.7841 147.841C49.7159 147.227 48.8636 146.292 48.2273 145.034C47.5985 143.769 47.2841 142.17 47.2841 140.239C47.2841 138.261 47.6061 136.61 48.25 135.284C48.8939 133.958 49.75 132.966 50.8182 132.307C51.8939 131.648 53.072 131.318 54.3523 131.318C55.3295 131.318 56.1477 131.485 56.8068 131.818C57.4659 132.144 57.9962 132.553 58.3977 133.045C58.8068 133.53 59.1212 134.008 59.3409 134.477H59.5227V131.545H64.3295V149.17C64.3295 150.655 63.9659 151.898 63.2386 152.898C62.5114 153.898 61.5038 154.648 60.2159 155.148C58.9356 155.655 57.4621 155.909 55.7955 155.909ZM55.8977 145.114C56.678 145.114 57.3371 144.92 57.875 144.534C58.4205 144.14 58.8371 143.58 59.125 142.852C59.4205 142.117 59.5682 141.239 59.5682 140.216C59.5682 139.193 59.4242 138.307 59.1364 137.557C58.8485 136.799 58.4318 136.212 57.8864 135.795C57.3409 135.379 56.678 135.17 55.8977 135.17C55.1023 135.17 54.4318 135.386 53.8864 135.818C53.3409 136.242 52.928 136.833 52.6477 137.591C52.3674 138.348 52.2273 139.223 52.2273 140.216C52.2273 141.223 52.3674 142.095 52.6477 142.83C52.9356 143.557 53.3485 144.121 53.8864 144.523C54.4318 144.917 55.1023 145.114 55.8977 145.114ZM73.0227 138.909V149H68.1818V131.545H72.7955V134.625H73C73.3864 133.61 74.0341 132.807 74.9432 132.216C75.8523 131.617 76.9545 131.318 78.25 131.318C79.4621 131.318 80.5189 131.583 81.4205 132.114C82.322 132.644 83.0227 133.402 83.5227 134.386C84.0227 135.364 84.2727 136.53 84.2727 137.886V149H79.4318V138.75C79.4394 137.682 79.1667 136.848 78.6136 136.25C78.0606 135.644 77.2992 135.341 76.3295 135.341C75.678 135.341 75.1023 135.481 74.6023 135.761C74.1098 136.042 73.7235 136.451 73.4432 136.989C73.1705 137.519 73.0303 138.159 73.0227 138.909ZM88.0881 149V131.545H92.929V149H88.0881ZM90.5199 129.295C89.8002 129.295 89.1828 129.057 88.6676 128.58C88.16 128.095 87.9062 127.515 87.9062 126.841C87.9062 126.174 88.16 125.602 88.6676 125.125C89.1828 124.64 89.8002 124.398 90.5199 124.398C91.2396 124.398 91.8532 124.64 92.3608 125.125C92.8759 125.602 93.1335 126.174 93.1335 126.841C93.1335 127.515 92.8759 128.095 92.3608 128.58C91.8532 129.057 91.2396 129.295 90.5199 129.295ZM106.091 131.545V135.182H95.5795V131.545H106.091ZM97.9659 127.364H102.807V143.636C102.807 144.083 102.875 144.432 103.011 144.682C103.148 144.924 103.337 145.095 103.58 145.193C103.83 145.292 104.117 145.341 104.443 145.341C104.67 145.341 104.898 145.322 105.125 145.284C105.352 145.239 105.527 145.205 105.648 145.182L106.409 148.784C106.167 148.86 105.826 148.947 105.386 149.045C104.947 149.152 104.413 149.216 103.784 149.239C102.617 149.284 101.595 149.129 100.716 148.773C99.8447 148.417 99.1667 147.864 98.6818 147.114C98.197 146.364 97.9583 145.417 97.9659 144.273V127.364ZM117.011 149.341C115.216 149.341 113.67 148.977 112.375 148.25C111.087 147.515 110.095 146.477 109.398 145.136C108.701 143.788 108.352 142.193 108.352 140.352C108.352 138.557 108.701 136.981 109.398 135.625C110.095 134.269 111.076 133.212 112.341 132.455C113.614 131.697 115.106 131.318 116.818 131.318C117.97 131.318 119.042 131.504 120.034 131.875C121.034 132.239 121.905 132.788 122.648 133.523C123.398 134.258 123.981 135.182 124.398 136.295C124.814 137.402 125.023 138.697 125.023 140.182V141.511H110.284V138.511H120.466C120.466 137.814 120.314 137.197 120.011 136.659C119.708 136.121 119.288 135.701 118.75 135.398C118.22 135.087 117.602 134.932 116.898 134.932C116.163 134.932 115.511 135.102 114.943 135.443C114.383 135.777 113.943 136.227 113.625 136.795C113.307 137.356 113.144 137.981 113.136 138.67V141.523C113.136 142.386 113.295 143.133 113.614 143.761C113.939 144.39 114.398 144.875 114.989 145.216C115.58 145.557 116.28 145.727 117.091 145.727C117.629 145.727 118.121 145.652 118.568 145.5C119.015 145.348 119.398 145.121 119.716 144.818C120.034 144.515 120.277 144.144 120.443 143.705L124.92 144C124.693 145.076 124.227 146.015 123.523 146.818C122.826 147.614 121.924 148.235 120.818 148.682C119.72 149.121 118.451 149.341 117.011 149.341ZM135.679 149V125.727H140.599V144.943H150.577V149H135.679ZM158.722 149.33C157.608 149.33 156.616 149.136 155.744 148.75C154.873 148.356 154.184 147.777 153.676 147.011C153.176 146.239 152.926 145.277 152.926 144.125C152.926 143.155 153.104 142.341 153.46 141.682C153.816 141.023 154.301 140.492 154.915 140.091C155.528 139.689 156.225 139.386 157.006 139.182C157.794 138.977 158.619 138.833 159.483 138.75C160.498 138.644 161.316 138.545 161.938 138.455C162.559 138.356 163.009 138.212 163.29 138.023C163.57 137.833 163.71 137.553 163.71 137.182V137.114C163.71 136.394 163.483 135.837 163.028 135.443C162.581 135.049 161.945 134.852 161.119 134.852C160.248 134.852 159.555 135.045 159.04 135.432C158.525 135.811 158.184 136.288 158.017 136.864L153.54 136.5C153.767 135.439 154.214 134.523 154.881 133.75C155.547 132.97 156.407 132.371 157.46 131.955C158.521 131.53 159.748 131.318 161.142 131.318C162.112 131.318 163.04 131.432 163.926 131.659C164.82 131.886 165.612 132.239 166.301 132.716C166.998 133.193 167.547 133.807 167.949 134.557C168.35 135.299 168.551 136.189 168.551 137.227V149H163.96V146.58H163.824C163.544 147.125 163.169 147.606 162.699 148.023C162.229 148.432 161.665 148.754 161.006 148.989C160.347 149.216 159.585 149.33 158.722 149.33ZM160.108 145.989C160.82 145.989 161.449 145.848 161.994 145.568C162.54 145.28 162.968 144.894 163.278 144.409C163.589 143.924 163.744 143.375 163.744 142.761V140.909C163.593 141.008 163.384 141.098 163.119 141.182C162.862 141.258 162.57 141.33 162.244 141.398C161.919 141.458 161.593 141.515 161.267 141.568C160.941 141.614 160.646 141.655 160.381 141.693C159.813 141.777 159.316 141.909 158.892 142.091C158.468 142.273 158.138 142.519 157.903 142.83C157.669 143.133 157.551 143.511 157.551 143.966C157.551 144.625 157.79 145.129 158.267 145.477C158.752 145.818 159.366 145.989 160.108 145.989ZM172.398 149V125.727H177.239V134.477H177.386C177.598 134.008 177.905 133.53 178.307 133.045C178.716 132.553 179.246 132.144 179.898 131.818C180.557 131.485 181.375 131.318 182.352 131.318C183.625 131.318 184.799 131.652 185.875 132.318C186.951 132.977 187.811 133.973 188.455 135.307C189.098 136.633 189.42 138.295 189.42 140.295C189.42 142.242 189.106 143.886 188.477 145.227C187.856 146.561 187.008 147.572 185.932 148.261C184.864 148.943 183.667 149.284 182.341 149.284C181.402 149.284 180.602 149.129 179.943 148.818C179.292 148.508 178.758 148.117 178.341 147.648C177.924 147.17 177.606 146.689 177.386 146.205H177.17V149H172.398ZM177.136 140.273C177.136 141.311 177.28 142.216 177.568 142.989C177.856 143.761 178.273 144.364 178.818 144.795C179.364 145.22 180.027 145.432 180.807 145.432C181.595 145.432 182.261 145.216 182.807 144.784C183.352 144.345 183.765 143.739 184.045 142.966C184.333 142.186 184.477 141.288 184.477 140.273C184.477 139.265 184.337 138.379 184.057 137.614C183.777 136.848 183.364 136.25 182.818 135.818C182.273 135.386 181.602 135.17 180.807 135.17C180.019 135.17 179.352 135.379 178.807 135.795C178.269 136.212 177.856 136.803 177.568 137.568C177.28 138.333 177.136 139.235 177.136 140.273ZM10.2727 188H2.02273V164.727H10.3409C12.6818 164.727 14.697 165.193 16.3864 166.125C18.0758 167.049 19.375 168.379 20.2841 170.114C21.2008 171.848 21.6591 173.924 21.6591 176.341C21.6591 178.765 21.2008 180.848 20.2841 182.591C19.375 184.333 18.0682 185.67 16.3636 186.602C14.6667 187.534 12.6364 188 10.2727 188ZM6.94318 183.784H10.0682C11.5227 183.784 12.7462 183.527 13.7386 183.011C14.7386 182.489 15.4886 181.682 15.9886 180.591C16.4962 179.492 16.75 178.076 16.75 176.341C16.75 174.621 16.4962 173.216 15.9886 172.125C15.4886 171.034 14.7424 170.231 13.75 169.716C12.7576 169.201 11.5341 168.943 10.0795 168.943H6.94318V183.784ZM33.1676 188.341C31.3722 188.341 29.8267 187.977 28.5312 187.25C27.2434 186.515 26.2509 185.477 25.554 184.136C24.857 182.788 24.5085 181.193 24.5085 179.352C24.5085 177.557 24.857 175.981 25.554 174.625C26.2509 173.269 27.232 172.212 28.4972 171.455C29.7699 170.697 31.2623 170.318 32.9744 170.318C34.1259 170.318 35.1979 170.504 36.1903 170.875C37.1903 171.239 38.0616 171.788 38.804 172.523C39.554 173.258 40.1373 174.182 40.554 175.295C40.9706 176.402 41.179 177.697 41.179 179.182V180.511H26.4403V177.511H36.6222C36.6222 176.814 36.4706 176.197 36.1676 175.659C35.8646 175.121 35.4441 174.701 34.9062 174.398C34.3759 174.087 33.7585 173.932 33.054 173.932C32.3191 173.932 31.6676 174.102 31.0994 174.443C30.5388 174.777 30.0994 175.227 29.7812 175.795C29.4631 176.356 29.3002 176.981 29.2926 177.67V180.523C29.2926 181.386 29.4517 182.133 29.7699 182.761C30.0956 183.39 30.554 183.875 31.1449 184.216C31.7358 184.557 32.4366 184.727 33.2472 184.727C33.785 184.727 34.2775 184.652 34.7244 184.5C35.1714 184.348 35.554 184.121 35.8722 183.818C36.1903 183.515 36.4328 183.144 36.5994 182.705L41.0767 183C40.8494 184.076 40.3835 185.015 39.679 185.818C38.982 186.614 38.0805 187.235 36.9744 187.682C35.8759 188.121 34.607 188.341 33.1676 188.341ZM58.8608 175.523L54.429 175.795C54.3532 175.417 54.1903 175.076 53.9403 174.773C53.6903 174.462 53.3608 174.216 52.9517 174.034C52.5502 173.845 52.0691 173.75 51.5085 173.75C50.7585 173.75 50.1259 173.909 49.6108 174.227C49.0956 174.538 48.8381 174.955 48.8381 175.477C48.8381 175.894 49.0047 176.246 49.3381 176.534C49.6714 176.822 50.2434 177.053 51.054 177.227L54.2131 177.864C55.91 178.212 57.1752 178.773 58.0085 179.545C58.8419 180.318 59.2585 181.333 59.2585 182.591C59.2585 183.735 58.9214 184.739 58.2472 185.602C57.5805 186.466 56.6638 187.14 55.4972 187.625C54.3381 188.102 53.0009 188.341 51.4858 188.341C49.1752 188.341 47.3343 187.86 45.9631 186.898C44.5994 185.928 43.8002 184.61 43.5653 182.943L48.3267 182.693C48.4706 183.398 48.8191 183.936 49.3722 184.307C49.9252 184.67 50.6335 184.852 51.4972 184.852C52.3456 184.852 53.0275 184.689 53.5426 184.364C54.0653 184.03 54.3305 183.602 54.3381 183.08C54.3305 182.64 54.1449 182.28 53.7812 182C53.4176 181.712 52.857 181.492 52.0994 181.341L49.0767 180.739C47.3722 180.398 46.1032 179.807 45.2699 178.966C44.4441 178.125 44.0312 177.053 44.0312 175.75C44.0312 174.629 44.3343 173.663 44.9403 172.852C45.554 172.042 46.4138 171.417 47.5199 170.977C48.6335 170.538 49.9366 170.318 51.429 170.318C53.6335 170.318 55.3684 170.784 56.6335 171.716C57.9063 172.648 58.6487 173.917 58.8608 175.523ZM62.3068 188V170.545H67.1477V188H62.3068ZM64.7386 168.295C64.0189 168.295 63.4015 168.057 62.8864 167.58C62.3788 167.095 62.125 166.515 62.125 165.841C62.125 165.174 62.3788 164.602 62.8864 164.125C63.4015 163.64 64.0189 163.398 64.7386 163.398C65.4583 163.398 66.072 163.64 66.5795 164.125C67.0947 164.602 67.3523 165.174 67.3523 165.841C67.3523 166.515 67.0947 167.095 66.5795 167.58C66.072 168.057 65.4583 168.295 64.7386 168.295ZM78.8892 194.909C77.321 194.909 75.9763 194.693 74.8551 194.261C73.7415 193.837 72.8551 193.258 72.196 192.523C71.5369 191.788 71.1089 190.962 70.9119 190.045L75.3892 189.443C75.5256 189.792 75.7415 190.117 76.0369 190.42C76.3324 190.723 76.7225 190.966 77.2074 191.148C77.6998 191.337 78.2983 191.432 79.0028 191.432C80.0559 191.432 80.9233 191.174 81.6051 190.659C82.2945 190.152 82.6392 189.299 82.6392 188.102V184.909H82.4347C82.2225 185.394 81.9044 185.852 81.4801 186.284C81.0559 186.716 80.5104 187.068 79.8438 187.341C79.1771 187.614 78.3816 187.75 77.4574 187.75C76.1468 187.75 74.9536 187.447 73.8778 186.841C72.8097 186.227 71.9574 185.292 71.321 184.034C70.6922 182.769 70.3778 181.17 70.3778 179.239C70.3778 177.261 70.6998 175.61 71.3438 174.284C71.9877 172.958 72.8438 171.966 73.9119 171.307C74.9877 170.648 76.1657 170.318 77.446 170.318C78.4233 170.318 79.2415 170.485 79.9006 170.818C80.5597 171.144 81.09 171.553 81.4915 172.045C81.9006 172.53 82.215 173.008 82.4347 173.477H82.6165V170.545H87.4233V188.17C87.4233 189.655 87.0597 190.898 86.3324 191.898C85.6051 192.898 84.5975 193.648 83.3097 194.148C82.0294 194.655 80.5559 194.909 78.8892 194.909ZM78.9915 184.114C79.7718 184.114 80.4309 183.92 80.9688 183.534C81.5142 183.14 81.9309 182.58 82.2188 181.852C82.5142 181.117 82.6619 180.239 82.6619 179.216C82.6619 178.193 82.518 177.307 82.2301 176.557C81.9422 175.799 81.5256 175.212 80.9801 174.795C80.4347 174.379 79.7718 174.17 78.9915 174.17C78.196 174.17 77.5256 174.386 76.9801 174.818C76.4347 175.242 76.0218 175.833 75.7415 176.591C75.4612 177.348 75.321 178.223 75.321 179.216C75.321 180.223 75.4612 181.095 75.7415 181.83C76.0294 182.557 76.4422 183.121 76.9801 183.523C77.5256 183.917 78.196 184.114 78.9915 184.114ZM96.1165 177.909V188H91.2756V170.545H95.8892V173.625H96.0938C96.4801 172.61 97.1278 171.807 98.0369 171.216C98.946 170.617 100.048 170.318 101.344 170.318C102.556 170.318 103.613 170.583 104.514 171.114C105.416 171.644 106.116 172.402 106.616 173.386C107.116 174.364 107.366 175.53 107.366 176.886V188H102.526V177.75C102.533 176.682 102.26 175.848 101.707 175.25C101.154 174.644 100.393 174.341 99.4233 174.341C98.7718 174.341 98.196 174.481 97.696 174.761C97.2036 175.042 96.8172 175.451 96.5369 175.989C96.2642 176.519 96.1241 177.159 96.1165 177.909ZM131.304 171.42C131.213 170.504 130.823 169.792 130.134 169.284C129.444 168.777 128.509 168.523 127.327 168.523C126.524 168.523 125.846 168.636 125.293 168.864C124.74 169.083 124.315 169.39 124.02 169.784C123.732 170.178 123.588 170.625 123.588 171.125C123.573 171.542 123.66 171.905 123.849 172.216C124.046 172.527 124.315 172.795 124.656 173.023C124.997 173.242 125.391 173.436 125.838 173.602C126.285 173.761 126.762 173.898 127.27 174.011L129.361 174.511C130.376 174.739 131.308 175.042 132.156 175.42C133.005 175.799 133.74 176.265 134.361 176.818C134.982 177.371 135.463 178.023 135.804 178.773C136.152 179.523 136.33 180.383 136.338 181.352C136.33 182.777 135.967 184.011 135.247 185.057C134.535 186.095 133.505 186.902 132.156 187.477C130.815 188.045 129.198 188.33 127.304 188.33C125.425 188.33 123.789 188.042 122.395 187.466C121.009 186.89 119.925 186.038 119.145 184.909C118.372 183.773 117.967 182.367 117.929 180.693H122.69C122.743 181.473 122.967 182.125 123.361 182.648C123.762 183.163 124.296 183.553 124.963 183.818C125.637 184.076 126.399 184.205 127.247 184.205C128.08 184.205 128.804 184.083 129.418 183.841C130.039 183.598 130.52 183.261 130.861 182.83C131.202 182.398 131.372 181.902 131.372 181.341C131.372 180.818 131.217 180.379 130.906 180.023C130.603 179.667 130.156 179.364 129.565 179.114C128.982 178.864 128.266 178.636 127.418 178.432L124.884 177.795C122.921 177.318 121.372 176.572 120.236 175.557C119.099 174.542 118.535 173.174 118.543 171.455C118.535 170.045 118.91 168.814 119.668 167.761C120.433 166.708 121.482 165.886 122.815 165.295C124.149 164.705 125.664 164.409 127.361 164.409C129.088 164.409 130.596 164.705 131.884 165.295C133.179 165.886 134.187 166.708 134.906 167.761C135.626 168.814 135.997 170.034 136.02 171.42H131.304ZM142.545 194.545C141.932 194.545 141.356 194.496 140.818 194.398C140.288 194.307 139.848 194.189 139.5 194.045L140.591 190.432C141.159 190.606 141.67 190.701 142.125 190.716C142.587 190.731 142.985 190.625 143.318 190.398C143.659 190.17 143.936 189.784 144.148 189.239L144.432 188.5L138.17 170.545H143.261L146.875 183.364H147.057L150.705 170.545H155.83L149.045 189.886C148.72 190.826 148.277 191.644 147.716 192.341C147.163 193.045 146.462 193.587 145.614 193.966C144.765 194.352 143.742 194.545 142.545 194.545ZM172.83 175.523L168.398 175.795C168.322 175.417 168.159 175.076 167.909 174.773C167.659 174.462 167.33 174.216 166.92 174.034C166.519 173.845 166.038 173.75 165.477 173.75C164.727 173.75 164.095 173.909 163.58 174.227C163.064 174.538 162.807 174.955 162.807 175.477C162.807 175.894 162.973 176.246 163.307 176.534C163.64 176.822 164.212 177.053 165.023 177.227L168.182 177.864C169.879 178.212 171.144 178.773 171.977 179.545C172.811 180.318 173.227 181.333 173.227 182.591C173.227 183.735 172.89 184.739 172.216 185.602C171.549 186.466 170.633 187.14 169.466 187.625C168.307 188.102 166.97 188.341 165.455 188.341C163.144 188.341 161.303 187.86 159.932 186.898C158.568 185.928 157.769 184.61 157.534 182.943L162.295 182.693C162.439 183.398 162.788 183.936 163.341 184.307C163.894 184.67 164.602 184.852 165.466 184.852C166.314 184.852 166.996 184.689 167.511 184.364C168.034 184.03 168.299 183.602 168.307 183.08C168.299 182.64 168.114 182.28 167.75 182C167.386 181.712 166.826 181.492 166.068 181.341L163.045 180.739C161.341 180.398 160.072 179.807 159.239 178.966C158.413 178.125 158 177.053 158 175.75C158 174.629 158.303 173.663 158.909 172.852C159.523 172.042 160.383 171.417 161.489 170.977C162.602 170.538 163.905 170.318 165.398 170.318C167.602 170.318 169.337 170.784 170.602 171.716C171.875 172.648 172.617 173.917 172.83 175.523ZM185.56 170.545V174.182H175.048V170.545H185.56ZM177.435 166.364H182.276V182.636C182.276 183.083 182.344 183.432 182.48 183.682C182.616 183.924 182.806 184.095 183.048 184.193C183.298 184.292 183.586 184.341 183.912 184.341C184.139 184.341 184.366 184.322 184.594 184.284C184.821 184.239 184.995 184.205 185.116 184.182L185.878 187.784C185.635 187.86 185.295 187.947 184.855 188.045C184.416 188.152 183.882 188.216 183.253 188.239C182.086 188.284 181.063 188.129 180.185 187.773C179.313 187.417 178.635 186.864 178.151 186.114C177.666 185.364 177.427 184.417 177.435 183.273V166.364ZM196.48 188.341C194.685 188.341 193.139 187.977 191.844 187.25C190.556 186.515 189.563 185.477 188.866 184.136C188.17 182.788 187.821 181.193 187.821 179.352C187.821 177.557 188.17 175.981 188.866 174.625C189.563 173.269 190.545 172.212 191.81 171.455C193.082 170.697 194.575 170.318 196.287 170.318C197.438 170.318 198.51 170.504 199.503 170.875C200.503 171.239 201.374 171.788 202.116 172.523C202.866 173.258 203.45 174.182 203.866 175.295C204.283 176.402 204.491 177.697 204.491 179.182V180.511H189.753V177.511H199.935C199.935 176.814 199.783 176.197 199.48 175.659C199.177 175.121 198.757 174.701 198.219 174.398C197.688 174.087 197.071 173.932 196.366 173.932C195.632 173.932 194.98 174.102 194.412 174.443C193.851 174.777 193.412 175.227 193.094 175.795C192.776 176.356 192.613 176.981 192.605 177.67V180.523C192.605 181.386 192.764 182.133 193.082 182.761C193.408 183.39 193.866 183.875 194.457 184.216C195.048 184.557 195.749 184.727 196.56 184.727C197.098 184.727 197.59 184.652 198.037 184.5C198.484 184.348 198.866 184.121 199.185 183.818C199.503 183.515 199.745 183.144 199.912 182.705L204.389 183C204.162 184.076 203.696 185.015 202.991 185.818C202.295 186.614 201.393 187.235 200.287 187.682C199.188 188.121 197.92 188.341 196.48 188.341ZM207.651 188V170.545H212.264V173.625H212.469C212.832 172.602 213.438 171.795 214.287 171.205C215.135 170.614 216.151 170.318 217.332 170.318C218.529 170.318 219.548 170.617 220.389 171.216C221.23 171.807 221.791 172.61 222.071 173.625H222.253C222.609 172.625 223.253 171.826 224.185 171.227C225.124 170.621 226.234 170.318 227.514 170.318C229.143 170.318 230.465 170.837 231.48 171.875C232.503 172.905 233.014 174.367 233.014 176.261V188H228.185V177.216C228.185 176.246 227.927 175.519 227.412 175.034C226.897 174.549 226.253 174.307 225.48 174.307C224.601 174.307 223.916 174.587 223.423 175.148C222.931 175.701 222.685 176.432 222.685 177.341V188H217.991V177.114C217.991 176.258 217.745 175.576 217.253 175.068C216.768 174.561 216.128 174.307 215.332 174.307C214.795 174.307 214.31 174.443 213.878 174.716C213.454 174.981 213.116 175.356 212.866 175.841C212.616 176.318 212.491 176.879 212.491 177.523V188H207.651Z" fill="#E1E1E6"/>
<g clip-path="url(#clip0_1_2)">
<path d="M165.312 60.0107C165.312 53.0343 156.575 46.4228 143.181 42.3228C146.272 28.6704 144.898 17.8087 138.844 14.3312C137.449 13.5155 135.818 13.1291 134.036 13.1291V17.916C135.024 17.916 135.818 18.1092 136.483 18.4741C139.403 20.1484 140.669 26.5238 139.682 34.7238C139.446 36.7416 139.059 38.8668 138.587 41.0348C134.38 40.0045 129.786 39.2102 124.956 38.695C122.058 34.7238 119.053 31.1176 116.026 27.9621C123.024 21.4579 129.593 17.8945 134.058 17.8945V13.1076C128.154 13.1076 120.427 17.3149 112.613 24.6134C104.799 17.3579 97.0717 13.1935 91.1686 13.1935V17.9804C95.612 17.9804 102.202 21.5223 109.2 27.9835C106.195 31.139 103.19 34.7238 100.335 38.695C95.4832 39.2102 90.8895 40.0045 86.6822 41.0563C86.1885 38.9097 85.8235 36.8275 85.566 34.8312C84.5571 26.6312 85.8021 20.2558 88.7 18.56C89.344 18.1736 90.1811 18.0019 91.1686 18.0019V13.2149C89.3654 13.2149 87.734 13.6013 86.3173 14.417C80.2853 17.8945 78.933 28.7348 82.0455 42.3442C68.6937 46.4657 60 53.0558 60 60.0107C60 66.9872 68.7366 73.5987 82.1314 77.6987C79.0403 91.351 80.4141 102.213 86.4675 105.69C87.8628 106.506 89.4942 106.892 91.2974 106.892C97.2005 106.892 104.928 102.685 112.742 95.3866C120.555 102.642 128.283 106.807 134.186 106.807C135.989 106.807 137.621 106.42 139.038 105.604C145.07 102.127 146.422 91.2866 143.309 77.6772C156.618 73.5772 165.312 66.9657 165.312 60.0107ZM137.363 45.6929C136.569 48.4621 135.582 51.317 134.465 54.172C133.585 52.4547 132.662 50.7374 131.653 49.0202C130.666 47.3029 129.614 45.6285 128.562 43.9971C131.61 44.4479 134.551 45.006 137.363 45.6929ZM127.532 68.5542C125.858 71.4521 124.14 74.1997 122.359 76.7542C119.16 77.0332 115.919 77.1835 112.656 77.1835C109.415 77.1835 106.173 77.0332 102.996 76.7757C101.215 74.2212 99.4759 71.495 97.8016 68.6186C96.1701 65.8065 94.689 62.9516 93.3366 60.0751C94.6675 57.1987 96.1701 54.3223 97.7801 51.5102C99.4544 48.6123 101.172 45.8647 102.953 43.3102C106.152 43.0312 109.393 42.8809 112.656 42.8809C115.897 42.8809 119.139 43.0312 122.316 43.2888C124.097 45.8432 125.836 48.5694 127.51 51.4458C129.142 54.2579 130.623 57.1128 131.975 59.9893C130.623 62.8657 129.142 65.7421 127.532 68.5542ZM134.465 65.7636C135.625 68.64 136.612 71.5165 137.428 74.3071C134.616 74.994 131.653 75.5736 128.584 76.0243C129.636 74.3715 130.687 72.6757 131.675 70.9369C132.662 69.2196 133.585 67.4809 134.465 65.7636ZM112.699 88.6678C110.703 86.6071 108.706 84.3102 106.731 81.7987C108.663 81.8846 110.638 81.949 112.635 81.949C114.652 81.949 116.649 81.906 118.602 81.7987C116.67 84.3102 114.674 86.6071 112.699 88.6678ZM96.7283 76.0243C93.6801 75.5736 90.7393 75.0154 87.9272 74.3285C88.7215 71.5594 89.7089 68.7045 90.8251 65.8495C91.7052 67.5668 92.6283 69.284 93.6372 71.0013C94.6461 72.7186 95.6764 74.3929 96.7283 76.0243ZM112.592 31.3537C114.588 33.4144 116.584 35.7113 118.559 38.2228C116.627 38.1369 114.652 38.0725 112.656 38.0725C110.638 38.0725 108.642 38.1155 106.688 38.2228C108.62 35.7113 110.617 33.4144 112.592 31.3537ZM96.7068 43.9971C95.655 45.65 94.6031 47.3458 93.6157 49.0846C92.6283 50.8018 91.7052 52.5191 90.8251 54.2364C89.666 51.36 88.6785 48.4835 87.8628 45.6929C90.6749 45.0275 93.6372 44.4479 96.7068 43.9971ZM77.2801 70.8725C69.6812 67.6312 64.7654 63.3809 64.7654 60.0107C64.7654 56.6406 69.6812 52.3689 77.2801 49.149C79.1262 48.3547 81.144 47.6463 83.2262 46.9809C84.4497 51.1882 86.0597 55.5673 88.056 60.0537C86.0811 64.5186 84.4927 68.8762 83.2906 73.062C81.1654 72.3966 79.1476 71.6668 77.2801 70.8725ZM88.8288 101.547C85.9094 99.873 84.6429 93.4976 85.6304 85.2976C85.8665 83.2798 86.2529 81.1547 86.7251 78.9866C90.9325 80.017 95.5262 80.8112 100.356 81.3264C103.254 85.2976 106.259 88.9039 109.286 92.0594C102.288 98.5636 95.7194 102.127 91.2544 102.127C90.2885 102.105 89.4728 101.912 88.8288 101.547ZM139.746 85.1903C140.755 93.3903 139.51 99.7657 136.612 101.462C135.968 101.848 135.131 102.02 134.143 102.02C129.7 102.02 123.11 98.4777 116.112 92.0165C119.117 88.861 122.122 85.2762 124.977 81.305C129.829 80.7898 134.422 79.9955 138.63 78.9437C139.124 81.1118 139.51 83.194 139.746 85.1903ZM148.01 70.8725C146.164 71.6668 144.147 72.3751 142.064 73.0406C140.841 68.8332 139.231 64.4542 137.235 59.9678C139.209 55.5029 140.798 51.1453 142 46.9594C144.125 47.6249 146.143 48.3547 148.032 49.149C155.631 52.3903 160.547 56.6406 160.547 60.0107C160.525 63.3809 155.609 67.6526 148.01 70.8725Z" fill="#81D8F7"/>
<path d="M112.635 69.8207C118.052 69.8207 122.444 65.4286 122.444 60.0107C122.444 54.5929 118.052 50.2008 112.635 50.2008C107.217 50.2008 102.825 54.5929 102.825 60.0107C102.825 65.4286 107.217 69.8207 112.635 69.8207Z" fill="#81D8F7"/>
</g>
<defs>
<clipPath id="clip0_1_2">
<rect width="105.312" height="120" fill="white" transform="translate(60)"/>
</clipPath>
</defs>
</svg>
